<?xml version="1.0" encoding="UTF-8"?><svg id="Layer_1" xmlns="http://www.w3.org/2000/svg" viewBox="0 0 600 290.4"><defs><style>.cls-1{fill:#fff;}.cls-2{fill:#231f20;}</style></defs><rect class="cls-1" width="600" height="290.4"/><g><g><path class="cls-2" d="M230.23,254.7c-2.01,0-3.94-.81-5.35-2.24-1.41-1.43-2.18-3.38-2.15-5.39l1.71-96.78c-.03,.08-.06,.16-.09,.24l-37.2,99.3c-1.1,2.93-3.9,4.87-7.02,4.87h-34.8c-3.13,0-5.93-1.94-7.02-4.87l-37.29-99.63,1.71,96.87c.04,2.01-.74,3.95-2.15,5.39-1.41,1.44-3.34,2.24-5.35,2.24H47.23c-4.14,0-7.5-3.36-7.5-7.5V43.2c0-4.14,3.36-7.5,7.5-7.5h63.3c3.14,0,5.95,1.96,7.04,4.91l44.4,120.6c.07,.18,.12,.36,.18,.54l1.47,5.15,1.52-5.2c.05-.16,.1-.33,.16-.49l44.4-120.6c1.09-2.95,3.9-4.91,7.04-4.91h61.5c4.14,0,7.5,3.36,7.5,7.5V247.2c0,4.14-3.36,7.5-7.5,7.5h-48Z"/><path class="cls-1" d="M278.23,43.2V247.2h-48l2.65-150.01-15.55,50.71-37.2,99.3h-34.8l-37.5-100.2-15.25-49.77,2.65,149.97H47.23V43.2h63.3l44.4,120.6,8.58,30.16,8.82-30.16,44.4-120.6h61.5m0-15h-61.5c-6.29,0-11.9,3.92-14.08,9.82l-39.02,106L124.6,38.02c-2.17-5.9-7.79-9.82-14.08-9.82H47.23c-8.28,0-15,6.72-15,15V247.2c0,8.28,6.72,15,15,15h48c4.02,0,7.88-1.62,10.7-4.49,2.82-2.87,4.37-6.75,4.3-10.78l-.94-53.24,21.99,58.77c2.19,5.86,7.79,9.74,14.05,9.74h34.8c6.25,0,11.85-3.88,14.05-9.74l21.99-58.71-.94,53.18c-.07,4.02,1.48,7.91,4.3,10.78,2.82,2.87,6.68,4.49,10.7,4.49h48c8.28,0,15-6.72,15-15V43.2c0-8.28-6.72-15-15-15h0Z"/></g><g><path class="cls-2" d="M504.77,254.7c-2.01,0-3.94-.81-5.35-2.24-1.41-1.43-2.18-3.38-2.15-5.39l1.71-96.78c-.03,.08-.06,.16-.08,.24l-37.2,99.3c-1.1,2.93-3.9,4.87-7.02,4.87h-34.8c-3.13,0-5.93-1.94-7.02-4.87l-37.29-99.63,1.71,96.87c.04,2.01-.74,3.95-2.15,5.39-1.41,1.44-3.34,2.24-5.35,2.24h-48c-4.14,0-7.5-3.36-7.5-7.5V43.2c0-4.14,3.36-7.5,7.5-7.5h63.3c3.14,0,5.95,1.96,7.04,4.91l44.4,120.6c.07,.18,.12,.36,.18,.54l1.47,5.15,1.52-5.21c.05-.16,.1-.33,.16-.49l44.4-120.6c1.09-2.95,3.9-4.91,7.04-4.91h61.5c4.14,0,7.5,3.36,7.5,7.5V247.2c0,4.14-3.36,7.5-7.5,7.5h-48Z"/><path class="cls-1" d="M552.77,43.2V247.2h-48l2.65-150.01-15.55,50.71-37.2,99.3h-34.8l-37.5-100.2-15.25-49.77,2.65,149.97h-48V43.2h63.3l44.4,120.6,8.58,30.16,8.82-30.16,44.4-120.6h61.5m0-15h-61.5c-6.29,0-11.9,3.92-14.08,9.82l-39.02,106-39.02-106c-2.17-5.9-7.79-9.82-14.08-9.82h-63.3c-8.28,0-15,6.72-15,15V247.2c0,8.28,6.72,15,15,15h48c4.02,0,7.88-1.62,10.7-4.49,2.82-2.87,4.37-6.75,4.3-10.78l-.94-53.25,21.99,58.77c2.19,5.86,7.79,9.74,14.05,9.74h34.8c6.25,0,11.85-3.88,14.05-9.74l21.99-58.71-.94,53.18c-.07,4.02,1.48,7.91,4.3,10.78s6.68,4.49,10.7,4.49h48c8.28,0,15-6.72,15-15V43.2c0-8.28-6.72-15-15-15h0Z"/></g></g></svg>